<svg width="17" height="16" viewBox="0 0 17 16" fill="none" xmlns="http://www.w3.org/2000/svg">
<path d="M8.50065 1.33337C4.81732 1.33337 1.83399 4.31671 1.83399 8.00004C1.83318 9.39948 2.27305 10.7636 3.09119 11.899C3.90933 13.0344 5.06421 13.8833 6.39199 14.3254C6.72532 14.3834 6.85065 14.1834 6.85065 14.008C6.85065 13.85 6.84199 13.3254 6.84199 12.7667C5.16732 13.0754 4.73399 12.3587 4.60065 11.9834C4.52532 11.7914 4.20065 11.2 3.91732 11.0414C3.68399 10.9167 3.35065 10.608 3.90865 10.6C4.43399 10.5914 4.80865 11.0834 4.93399 11.2834C5.53399 12.2914 6.49199 12.008 6.87532 11.8334C6.93399 11.4 7.10865 11.1087 7.30065 10.942C5.81732 10.7754 4.26732 10.2 4.26732 7.65004C4.26732 6.92471 4.52532 6.32537 4.95065 5.85871C4.88399 5.69204 4.65065 5.00871 5.01732 4.09204C5.01732 4.09204 5.57532 3.91671 6.85065 4.77471C7.39339 4.62431 7.95413 4.54872 8.51732 4.55004C9.08399 4.55004 9.65065 4.62471 10.184 4.77471C11.4593 3.90804 12.0173 4.09204 12.0173 4.09204C12.384 5.00871 12.1507 5.69204 12.084 5.85871C12.5087 6.32537 12.7673 6.91671 12.7673 7.65004C12.7673 10.2087 11.2093 10.7754 9.72599 10.942C9.96732 11.15 10.176 11.55 10.176 12.1754C10.176 13.0667 10.1673 13.7834 10.1673 14.0087C10.1673 14.1834 10.2927 14.3914 10.626 14.3247C11.9492 13.8778 13.099 13.0272 13.9135 11.8927C14.7281 10.7581 15.1663 9.3967 15.1667 8.00004C15.1667 4.31671 12.1833 1.33337 8.49999 1.33337" fill="white"/>
</svg>
