<svg width="16" height="16" viewBox="0 0 16 16" fill="none" xmlns="http://www.w3.org/2000/svg">
<path d="M1.76 4.93574C2.35429 3.75234 3.26598 2.75753 4.39317 2.0625C5.52035 1.36747 6.81862 0.999606 8.14286 1.00002C10.0679 1.00002 11.685 1.70788 12.9214 2.86074L10.8736 4.90931C10.1329 4.20145 9.19143 3.84074 8.14286 3.84074C6.28214 3.84074 4.70714 5.09788 4.14643 6.78574C4.00357 7.21431 3.92214 7.67145 3.92214 8.14288C3.92214 8.61431 4.00357 9.07145 4.14643 9.50002C4.70786 11.1886 6.28214 12.445 8.14286 12.445C9.10357 12.445 9.92143 12.1915 10.5614 11.7629C10.9325 11.5186 11.2501 11.2016 11.4951 10.8311C11.7402 10.4606 11.9076 10.0442 11.9871 9.60717H8.14286V6.84431H14.87C14.9543 7.31145 15 7.7986 15 8.30502C15 10.4807 14.2214 12.3122 12.87 13.555C11.6886 14.6465 10.0714 15.2857 8.14286 15.2857C7.20474 15.2861 6.27574 15.1016 5.40896 14.7428C4.54218 14.384 3.75461 13.8578 3.09126 13.1945C2.42791 12.5311 1.90178 11.7436 1.54295 10.8768C1.18412 10.01 0.999625 9.081 1 8.14288C1 6.99002 1.27571 5.90002 1.76 4.93574Z" fill="white"/>
</svg>
